<?xml version="1.0" standalone="no"?>
<!DOCTYPE svg PUBLIC "-//W3C//DTD SVG 20010904//EN"
 "http://www.w3.org/TR/2001/REC-SVG-20010904/DTD/svg10.dtd">
<svg version="1.0" xmlns="http://www.w3.org/2000/svg"
 width="1280.000000pt" height="1166.000000pt" viewBox="0 0 1280.000000 1166.000000"
 preserveAspectRatio="xMidYMid meet">
<metadata>
Created by potrace 1.15, written by Peter Selinger 2001-2017
</metadata>
<g transform="translate(0.000000,1166.000000) scale(0.100000,-0.100000)"
fill="#000000" stroke="none">
<path d="M6405 11653 c-538 -33 -992 -118 -1455 -273 -1569 -524 -2772 -1711
-3295 -3250 -128 -374 -203 -717 -251 -1150 -22 -194 -25 -721 -5 -910 65
-625 211 -1140 468 -1655 220 -440 489 -813 837 -1161 488 -487 1060 -840
1706 -1052 321 -106 545 -156 890 -199 180 -22 712 -25 885 -5 777 92 1438
367 2025 840 137 111 367 338 484 478 580 694 887 1600 835 2468 -34 571 -199
1073 -503 1531 -449 677 -1133 1126 -1913 1255 -551 91 -1092 9 -1562 -236
-419 -218 -745 -550 -941 -955 -259 -539 -268 -1175 -23 -1664 226 -449 635
-750 1096 -806 195 -24 439 32 714 163 502 238 678 743 433 1243 -129 264
-343 405 -615 405 -147 0 -284 -44 -388 -124 -27 -21 -51 -35 -54 -33 -9 10
48 251 71 304 30 64 133 175 223 239 366 263 959 221 1438 -101 107 -72 240
-196 324 -302 259 -330 384 -728 368 -1178 -29 -839 -531 -1588 -1312 -1961
-567 -270 -1208 -322 -1865 -153 -682 177 -1287 592 -1696 1164 -528 738 -724
1673 -549 2620 148 799 552 1538 1139 2084 589 548 1344 900 2176 1015 299 41
770 46 1060 11 1385 -167 2577 -896 3323 -2030 440 -670 699 -1417 789 -2275
20 -195 17 -765 -5 -970 -28 -250 -73 -502 -130 -725 -49 -188 -52 -207 -52
-325 0 -112 3 -134 29 -209 70 -205 235 -361 452 -428 91 -28 277 -25 369 5
194 65 349 206 422 385 60 147 173 670 212 982 42 332 46 412 46 840 0 438 -8
568 -56 895 -166 1155 -642 2227 -1380 3111 -135 161 -416 448 -599 611 -378
337 -801 623 -1271 859 -718 361 -1477 566 -2284 619 -137 9 -488 11 -610 3z"/>
</g>
</svg>
