<svg width="101" height="107" viewBox="0 0 101 107" fill="none" xmlns="http://www.w3.org/2000/svg">
<path d="M95.523 24.0319C93.2882 19.7989 90.8681 16.4736 87.7617 13.3775C77.2463 2.87997 61.8452 -1.77773 45.5893 0.615048C41.6356 1.18918 38.1614 2.06049 33.9428 3.54005C32.0509 4.19892 27.115 6.45041 25.4202 7.42927C19.8118 10.657 15.5215 14.0685 11.6287 18.3827C8.30425 22.0721 5.78148 25.8706 3.77523 30.2037C0.971208 36.2757 -0.279692 42.4522 0.0521418 48.6215C0.210897 51.6899 0.545688 53.7276 1.37917 56.7192C1.81809 58.2781 3.695 62.6177 4.50138 63.9384C8.14342 69.8603 13.0804 74.0485 19.6028 76.7798C21.1308 77.4147 24.0758 78.3049 25.8032 78.6518C34.366 80.3718 43.9326 78.956 51.8586 74.7846C57.0733 72.0422 61.1741 68.5323 64.3659 64.082C69.0853 57.5067 70.8324 50.0048 69.245 43.1041C68.1225 38.2299 65.419 34.1841 61.4463 31.4197C57.9086 28.9535 53.6385 27.7359 49.1516 27.8909C43.1868 28.1122 37.2106 30.7856 33.5178 34.8899C30.1308 38.667 28.7822 43.2932 29.9095 47.2843C30.3835 48.9739 31.7805 50.7165 33.9895 52.3873C38.0114 55.4421 43.3612 54.6926 47.1568 50.5408C49.1622 48.3516 49.7137 46.0022 48.7398 43.7901C48.2134 42.5946 47.3116 41.6704 46.1916 41.17C45.8986 41.0411 45.6818 40.9064 45.6898 40.8734C45.751 40.757 48.2075 40.1798 48.7851 40.138C49.4907 40.1056 50.8969 40.4639 51.8173 40.9195C55.5858 42.7603 57.3166 47.7645 56.0224 53.0507C55.7327 54.2318 55.05 55.849 54.3602 56.9899C52.2035 60.5215 48.9314 63.2569 44.6685 65.0701C36.7235 68.4575 27.926 67.6094 21.6434 62.8685C17.0898 59.4232 14.3086 54.4346 13.5355 48.3614C12.7476 42.0504 14.4598 35.3379 18.3411 29.5413C23.3477 22.06 31.3842 16.4281 40.8613 13.7617C48.8586 11.5148 57.2118 11.6091 64.4165 14.0252C71.647 16.4488 77.6402 21.069 81.6941 27.3389C83.1479 29.5936 84.8812 33.4026 85.5925 35.9123C88.991 47.8975 86.4462 60.7401 78.5192 71.7045C73.833 78.1764 67.7791 83.5087 60.0827 87.946C58.3319 88.9508 52.994 91.388 50.9993 92.0944C48.5626 92.9463 46.0463 93.6686 43.7581 94.168C41.8256 94.5814 41.6373 94.6391 40.5345 95.1487C39.4878 95.6324 39.2929 95.7518 38.6851 96.2871C37.0199 97.7417 36.1527 99.7573 36.3036 101.812C36.3677 102.673 37.0618 104.172 37.6716 104.791C38.9737 106.088 40.8465 106.74 42.7808 106.56C44.3695 106.414 49.662 105.074 52.7175 104.044C55.9707 102.952 56.7327 102.639 60.7327 100.79C64.8262 98.8987 66.0125 98.2722 68.8967 96.4697C79.0967 90.1317 87.411 81.6309 93.0301 71.8113C94.0514 70.018 95.7275 66.4933 96.5956 64.301C98.3916 59.7715 99.5499 55.0962 100.073 50.2545C100.875 42.8561 100.074 35.798 97.6792 29.0059C97.2728 27.8528 96.0346 24.9895 95.523 24.0319Z" fill="white"/>
</svg>
